<?xml version="1.0" encoding="utf-8"?>
<!-- Generator: Adobe Illustrator 23.1.0, SVG Export Plug-In . SVG Version: 6.00 Build 0)  -->
<svg version="1.1" id="Слой_1" xmlns="http://www.w3.org/2000/svg" xmlns:xlink="http://www.w3.org/1999/xlink" x="0px" y="0px"
	 viewBox="0 0 334 89" style="enable-background:new 0 0 334 89;" xml:space="preserve">
<style type="text/css">
	.st0{fill:#3B96DB;}
	.st1{fill:#FFFFFF;}
</style>
<path class="st0" d="M10,0h314c5.5,0,10,4.5,10,10v69c0,5.5-4.5,10-10,10H10C4.5,89,0,84.5,0,79V10C0,4.5,4.5,0,10,0z"/>
<path class="st1" d="M111.4,53.4l-3.9-6.7c2-0.9,3.4-3,3.4-5.1c0-1.6-0.6-3-1.7-4.1c-1.1-1.1-2.5-1.7-4.2-1.7h-7.1v17.7h3.5v-6.1
	h2.6l3.6,6.1H111.4z M105,39c1.3,0,2.4,1.2,2.4,2.6c0,1.4-1.1,2.6-2.4,2.6h-3.6V39H105z"/>
<path class="st1" d="M128.1,51.1c1.8-1.8,2.7-4,2.7-6.5c0-2.6-0.9-4.7-2.7-6.5c-1.8-1.8-4-2.7-6.5-2.7c-2.5,0-4.7,0.9-6.5,2.7
	c-1.8,1.8-2.6,3.9-2.6,6.5c0,2.6,0.9,4.7,2.6,6.5c1.8,1.8,4,2.6,6.5,2.6C124.1,53.7,126.3,52.9,128.1,51.1z M117.5,48.7
	c-1.1-1.1-1.6-2.5-1.6-4.2c0-1.7,0.6-3.1,1.6-4.2s2.4-1.6,4.1-1.6c1.6,0,3,0.6,4.1,1.6s1.6,2.5,1.6,4.2c0,1.7-0.6,3.1-1.6,4.2
	s-2.4,1.6-4.1,1.6C120,50.3,118.6,49.8,117.5,48.7z"/>
<path class="st1" d="M141.6,53.7c3.2,0,6.1-1.6,7.6-4.2l-3-1.7c-0.8,1.5-2.6,2.5-4.6,2.5c-1.7,0-3.1-0.5-4.2-1.6
	c-1-1.1-1.6-2.5-1.6-4.2c0-1.7,0.5-3.1,1.6-4.2c1.1-1.1,2.4-1.6,4.2-1.6c2,0,3.7,0.9,4.6,2.5l3-1.7c-1.5-2.5-4.4-4.2-7.6-4.2
	c-2.6,0-4.8,0.9-6.6,2.6c-1.7,1.7-2.6,3.9-2.6,6.5c0,2.6,0.9,4.8,2.6,6.5C136.8,52.9,138.9,53.7,141.6,53.7z"/>
<path class="st1" d="M158.3,44.3l6.5-8.6h-4l-6.1,7.8v-7.8h-3.5v17.7h3.5v-8.3l6.3,8.3h4L158.3,44.3z"/>
<path class="st1" d="M170.3,46.1h6.7v-3.3h-6.7v-3.8h7.3v-3.3h-10.8v17.7h10.9v-3.3h-7.4V46.1z"/>
<path class="st1" d="M178.9,35.7v3.3h4.7v14.3h3.5V39.1h4.8v-3.3H178.9z"/>
<path class="st1" d="M206.2,53.7c1.9,0,3.4-0.5,4.6-1.4c1.2-1,1.8-2.2,1.8-3.9c0-1-0.3-1.9-0.7-2.5c-0.3-0.6-1.1-1.2-1.7-1.6
	c-0.3-0.2-0.6-0.4-1.1-0.5c-0.5-0.2-0.9-0.4-1.1-0.4l-1.2-0.4c-1.3-0.4-2.2-0.8-2.7-1.1c-0.5-0.4-0.7-0.8-0.7-1.4
	c0-1,0.9-1.8,2.3-1.8c1.5,0,2.7,0.8,3.4,2.3l2.9-1.7c-1.2-2.5-3.5-4-6.3-4c-1.6,0-3,0.5-4.1,1.4c-1.1,0.9-1.7,2.2-1.7,3.8
	c0,1.6,0.6,2.8,1.7,3.6c1.1,0.8,2.1,1.2,3.7,1.6c1.4,0.4,2.4,0.8,3,1.1c0.6,0.3,0.8,0.8,0.8,1.4c0,1.1-0.9,1.9-2.8,1.9
	c-2,0-3.4-0.9-4.1-2.7l-3,1.7C200.2,52.1,202.7,53.7,206.2,53.7z"/>
<path class="st1" d="M223.1,53.7c3.2,0,6.1-1.6,7.6-4.2l-3-1.7c-0.8,1.5-2.6,2.5-4.6,2.5c-1.7,0-3.1-0.5-4.2-1.6
	c-1-1.1-1.6-2.5-1.6-4.2c0-1.7,0.5-3.1,1.6-4.2c1.1-1.1,2.4-1.6,4.2-1.6c2,0,3.7,0.9,4.6,2.5l3-1.7c-1.5-2.5-4.4-4.2-7.6-4.2
	c-2.6,0-4.8,0.9-6.6,2.6c-1.7,1.7-2.6,3.9-2.6,6.5c0,2.6,0.9,4.8,2.6,6.5C218.3,52.9,220.5,53.7,223.1,53.7z"/>
<path class="st1" d="M232.9,53.4h3.5V35.7h-3.5V53.4z"/>
<path class="st1" d="M243.1,46.1h6.7v-3.3h-6.7v-3.8h7.3v-3.3h-10.8v17.7h10.9v-3.3h-7.4V46.1z"/>
<path class="st1" d="M263.2,46.5l-7.6-10.8H253v17.7h3.5V42.6l7.6,10.8h2.6V35.7h-3.5V46.5z"/>
<path class="st1" d="M278.3,53.7c3.2,0,6.1-1.6,7.6-4.2l-3-1.7c-0.8,1.5-2.6,2.5-4.6,2.5c-1.7,0-3.1-0.5-4.2-1.6
	c-1-1.1-1.6-2.5-1.6-4.2c0-1.7,0.5-3.1,1.6-4.2c1.1-1.1,2.4-1.6,4.2-1.6c2,0,3.7,0.9,4.6,2.5l3-1.7c-1.5-2.5-4.4-4.2-7.6-4.2
	c-2.6,0-4.8,0.9-6.6,2.6c-1.7,1.7-2.6,3.9-2.6,6.5c0,2.6,0.9,4.8,2.6,6.5C273.5,52.9,275.7,53.7,278.3,53.7z"/>
<path class="st1" d="M291.6,46.1h6.7v-3.3h-6.7v-3.8h7.3v-3.3h-10.8v17.7H299v-3.3h-7.4V46.1z"/>
<path d="M43.8,61.8c-0.3,0-0.6,0-0.8-0.1c-0.3-0.1-0.5-0.3-0.7-0.5S42,60.7,42,60.5c-0.1-0.3-0.1-0.6,0-0.8c0.1-0.6,0.5-1.2,1-1.7
	c3.2-3.2,6.3-6.4,9.5-9.6c7.7-7.8,15.5-15.6,23.2-23.4c0.4-0.5,1-0.8,1.7-0.9c0.3-0.1,0.6-0.1,0.9,0c0.3,0.1,0.5,0.2,0.8,0.4
	c0.2,0.2,0.4,0.5,0.4,0.8c0.1,0.3,0.1,0.6,0,0.9c-0.1,0.6-0.4,1.2-0.9,1.7c-3.5,3.6-7.1,7.1-10.6,10.7C60.5,46,53.1,53.4,45.7,60.9
	C45.2,61.4,44.5,61.8,43.8,61.8L43.8,61.8z"/>
<path d="M41.4,50.2c0.1-0.7,0.4-1.4,0.9-1.9c1.4-1.4,2.7-2.7,4.1-4.1c5.4-5.5,10.8-10.9,16.2-16.4c0.4-0.5,1-0.8,1.7-0.9
	c0.3-0.1,0.6,0,0.9,0c0.3,0.1,0.5,0.2,0.7,0.4c0.2,0.2,0.4,0.5,0.4,0.7s0.1,0.6,0,0.9c-0.1,0.7-0.4,1.2-0.9,1.7
	c-0.9,0.9-1.8,1.8-2.7,2.8C56.8,39.3,51,45.2,45.1,51.1c-0.4,0.5-1,0.8-1.7,0.9c-0.3,0.1-0.5,0-0.8,0c-0.3-0.1-0.5-0.2-0.7-0.4
	c-0.2-0.2-0.4-0.4-0.5-0.7C41.4,50.7,41.3,50.4,41.4,50.2L41.4,50.2z"/>
<path d="M76.6,39.2c-0.1,0.7-0.4,1.4-0.9,1.8c-2.3,2.3-4.6,4.6-6.8,6.9c-4.5,4.5-8.9,9-13.4,13.5c-0.4,0.5-0.9,0.8-1.5,0.9
	c-0.3,0.1-0.7,0.1-1,0c-0.3-0.1-0.6-0.3-0.8-0.5c-0.2-0.2-0.4-0.5-0.4-0.9c-0.1-0.3,0-0.7,0.1-1c0.2-0.5,0.5-1,0.9-1.4
	c4.5-4.5,9-9.1,13.5-13.6c2.3-2.3,4.5-4.6,6.8-6.8c0.5-0.5,1.2-0.9,1.9-0.9c0.3,0,0.5,0,0.8,0.1c0.2,0.1,0.5,0.2,0.6,0.4
	c0.2,0.2,0.3,0.4,0.4,0.7S76.6,38.9,76.6,39.2L76.6,39.2z"/>
<path d="M41.4,40.4c0.1-0.7,0.4-1.4,0.9-1.9c0.7-0.7,1.5-1.5,2.2-2.2c1.7-1.7,3.4-3.4,5.1-5.1c0.4-0.4,0.8-0.7,1.3-0.8
	c0.3-0.1,0.7-0.2,1-0.1c0.3,0.1,0.7,0.2,0.9,0.5c0.3,0.2,0.4,0.6,0.5,0.9c0.1,0.3,0,0.7-0.1,1c-0.2,0.5-0.4,0.9-0.7,1.3
	c-2.4,2.5-4.9,5-7.4,7.5c-0.4,0.4-1,0.7-1.6,0.8c-0.3,0.1-0.5,0-0.8,0c-0.3-0.1-0.5-0.2-0.7-0.4c-0.2-0.2-0.4-0.4-0.5-0.7
	C41.4,41,41.3,40.7,41.4,40.4L41.4,40.4z"/>
<path d="M73.2,52.4c0,0.6-0.3,1.2-0.8,1.7c-2.5,2.5-5,5-7.5,7.6c-0.4,0.4-0.9,0.7-1.4,0.8c-0.3,0.1-0.6,0.1-1,0
	c-0.3-0.1-0.6-0.3-0.8-0.5c-0.2-0.2-0.4-0.5-0.4-0.8c-0.1-0.3-0.1-0.6,0.1-1c0.1-0.5,0.4-1,0.8-1.4c2.5-2.5,4.9-5,7.4-7.5
	c0.4-0.4,1-0.7,1.6-0.8c0.3-0.1,0.6,0,0.8,0c0.3,0.1,0.5,0.2,0.7,0.4c0.2,0.2,0.4,0.4,0.5,0.7C73.2,51.8,73.2,52.1,73.2,52.4
	L73.2,52.4z"/>
<path d="M73.7,62.1c0,0.6-0.3,1.2-0.8,1.6c-1.6,1.6-3.1,3.2-4.7,4.7c-0.4,0.4-1,0.7-1.6,0.8c-0.3,0-0.6,0-0.9-0.1
	c-0.3-0.1-0.5-0.3-0.7-0.5c-0.2-0.2-0.3-0.5-0.4-0.8c-0.1-0.3,0-0.6,0.1-0.9c0.1-0.5,0.4-0.9,0.8-1.3c1.5-1.5,3-3.1,4.6-4.6
	c0.4-0.4,1-0.7,1.6-0.8c0.3-0.1,0.6,0,0.8,0c0.3,0.1,0.5,0.2,0.7,0.4c0.2,0.2,0.4,0.4,0.5,0.7C73.7,61.6,73.8,61.8,73.7,62.1
	L73.7,62.1z"/>
<path d="M44,32.6c-0.1,0.6-0.3,1.2-0.8,1.6c-1.5,1.6-3.1,3.1-4.6,4.7c-0.4,0.4-1,0.7-1.6,0.8c-0.3,0-0.6,0-0.8-0.1
	c-0.3-0.1-0.5-0.2-0.7-0.4c-0.2-0.2-0.3-0.4-0.4-0.7c-0.1-0.3-0.1-0.5,0-0.8c0.1-0.6,0.4-1.1,0.8-1.6c1.5-1.6,3.1-3.1,4.6-4.6
	c0.2-0.3,0.5-0.5,0.8-0.6c0.3-0.1,0.7-0.2,1-0.2C43.3,30.6,44,31.4,44,32.6z"/>
<path class="st1" d="M64.7,66.9c0.1-0.5,0.4-0.9,0.8-1.3c1.5-1.5,3-3.1,4.6-4.6c0.4-0.4,1-0.7,1.6-0.8c0.3-0.1,0.6,0,0.8,0
	c0.3,0.1,0.5,0.2,0.7,0.4c0.2,0.2,0.4,0.4,0.5,0.7c0.1,0.3,0.1,0.5,0.1,0.8c0,0.6-0.3,1.2-0.8,1.6c-1.6,1.6-3.1,3.2-4.7,4.7
	c-0.4,0.4-1,0.7-1.6,0.8c-0.1,0-0.2,0-0.3,0c-0.3,0-0.6-0.1-0.8-0.2c-0.3-0.1-0.5-0.3-0.6-0.6c-0.2-0.2-0.3-0.5-0.3-0.8
	C64.6,67.4,64.6,67.2,64.7,66.9L64.7,66.9z M61.3,60.1c0.1-0.5,0.4-1,0.8-1.4c2.5-2.5,4.9-5,7.4-7.5c0.4-0.4,1-0.7,1.6-0.8
	c0.3-0.1,0.6,0,0.8,0c0.3,0.1,0.5,0.2,0.7,0.4c0.2,0.2,0.4,0.4,0.5,0.7c0.1,0.3,0.1,0.5,0.1,0.8c-0.1,0.6-0.3,1.2-0.8,1.7
	c-2.5,2.5-5,5-7.5,7.6c-0.4,0.4-0.9,0.7-1.4,0.8c-0.2,0-0.3,0-0.5,0c-0.3,0-0.6-0.1-0.8-0.2c-0.3-0.1-0.5-0.3-0.6-0.5
	c-0.2-0.2-0.3-0.5-0.3-0.8C61.2,60.6,61.2,60.3,61.3,60.1L61.3,60.1z M51.7,60c0.2-0.5,0.5-1,0.9-1.4c4.5-4.5,9-9.1,13.5-13.6
	c2.3-2.3,4.5-4.6,6.8-6.8c0.5-0.5,1.2-0.9,1.9-0.9c0.3,0,0.5,0,0.8,0.1c0.2,0.1,0.5,0.2,0.6,0.4c0.2,0.2,0.3,0.4,0.4,0.7
	c0.1,0.2,0.1,0.5,0.1,0.8c-0.1,0.7-0.4,1.4-0.9,1.8c-2.3,2.3-4.6,4.6-6.8,6.9c-4.5,4.5-8.9,9-13.4,13.5c-0.4,0.5-1,0.8-1.5,0.9
	c-0.2,0-0.3,0.1-0.5,0.1c-0.3,0-0.6-0.1-0.8-0.2c-0.3-0.1-0.5-0.3-0.7-0.6c-0.2-0.2-0.3-0.5-0.3-0.8C51.5,60.6,51.6,60.3,51.7,60
	L51.7,60z M42,59.7c0.1-0.6,0.5-1.2,1-1.7c3.2-3.2,6.3-6.4,9.5-9.6c7.7-7.8,15.5-15.6,23.2-23.4c0.4-0.5,1-0.8,1.7-0.9
	c0.3-0.1,0.6-0.1,0.9,0c0.3,0.1,0.5,0.2,0.8,0.4c0.2,0.2,0.4,0.5,0.4,0.8c0.1,0.3,0.1,0.6,0,0.9c-0.1,0.6-0.4,1.2-0.9,1.7
	c-3.5,3.6-7.1,7.1-10.6,10.7C60.5,46,53.1,53.4,45.7,60.9c-0.5,0.6-1.2,0.9-1.9,1c-0.3,0-0.6,0-0.8-0.1c-0.3-0.1-0.5-0.3-0.7-0.5
	C42.2,61,42,60.7,42,60.5C41.9,60.2,41.9,59.9,42,59.7L42,59.7z M41.4,50.2c0.1-0.7,0.4-1.4,0.9-1.9c1.4-1.4,2.7-2.7,4.1-4.1
	c5.4-5.5,10.8-10.9,16.2-16.4c0.4-0.5,1-0.8,1.7-0.9c0.3-0.1,0.6,0,0.9,0c0.3,0.1,0.5,0.2,0.7,0.4c0.2,0.2,0.4,0.5,0.4,0.7
	c0.1,0.3,0.1,0.6,0,0.9c-0.1,0.7-0.4,1.2-0.9,1.7c-0.9,0.9-1.8,1.8-2.7,2.8C56.8,39.3,51,45.2,45.1,51.1c-0.4,0.5-1,0.8-1.7,0.9
	c-0.1,0-0.2,0-0.3,0c-0.2,0-0.5-0.1-0.7-0.2c-0.2-0.1-0.4-0.2-0.6-0.4c-0.2-0.2-0.3-0.4-0.4-0.6C41.4,50.7,41.3,50.4,41.4,50.2
	L41.4,50.2z M41.4,40.4c0.1-0.7,0.4-1.4,0.9-1.9c0.7-0.7,1.5-1.5,2.2-2.2c1.7-1.7,3.4-3.4,5.1-5.1c0.4-0.4,0.8-0.7,1.3-0.8
	c0.3-0.1,0.7-0.2,1-0.1c0.3,0.1,0.7,0.2,0.9,0.5c0.3,0.2,0.4,0.6,0.5,0.9c0.1,0.3,0,0.7-0.1,1c-0.2,0.5-0.4,0.9-0.7,1.3
	c-2.4,2.5-4.9,5-7.4,7.5c-0.4,0.4-1,0.7-1.6,0.8c-0.1,0-0.2,0-0.3,0c-0.2,0-0.5-0.1-0.7-0.2S42,42,41.8,41.8
	c-0.2-0.2-0.3-0.4-0.4-0.6C41.4,40.9,41.3,40.7,41.4,40.4L41.4,40.4z M35,37.6c0.1-0.6,0.4-1.1,0.8-1.6c1.5-1.6,3.1-3.1,4.6-4.6
	c0.2-0.3,0.5-0.5,0.8-0.6c0.3-0.1,0.7-0.2,1-0.2c1,0,1.8,0.7,1.8,2c-0.1,0.6-0.3,1.2-0.8,1.6c-1.5,1.6-3.1,3.1-4.7,4.7
	c-0.4,0.4-1,0.7-1.6,0.8c-0.1,0-0.1,0-0.2,0c-0.3,0-0.5,0-0.8-0.2c-0.2-0.1-0.4-0.3-0.6-0.5c-0.2-0.2-0.3-0.4-0.3-0.7
	C35,38.2,35,37.9,35,37.6L35,37.6z"/>
</svg>
